<mxfile host="app.diagrams.net" modified="2024-04-23T13:01:36.705Z" agent="Mozilla/5.0 (Windows NT 10.0; Win64; x64) AppleWebKit/537.36 (KHTML, like Gecko) Chrome/124.0.0.0 Safari/537.36 Edg/124.0.0.0" etag="3x2JioFm3LRKMNVLny56" version="24.2.8" type="github">
  <diagram name="Page-1" id="7oHYlz4-uM54qPUjpgw-">
    <mxGraphModel dx="1632" dy="874" grid="1" gridSize="10" guides="1" tooltips="1" connect="1" arrows="1" fold="1" page="1" pageScale="1" pageWidth="850" pageHeight="1100" math="0" shadow="0">
      <root>
        <mxCell id="0" />
        <mxCell id="1" parent="0" />
        <mxCell id="p4TbeNJRiNuZwnVtpN4l-4" style="edgeStyle=orthogonalEdgeStyle;rounded=0;orthogonalLoop=1;jettySize=auto;html=1;exitX=0.25;exitY=1;exitDx=0;exitDy=0;endArrow=oval;endFill=1;" edge="1" parent="1" source="p4TbeNJRiNuZwnVtpN4l-1">
          <mxGeometry relative="1" as="geometry">
            <mxPoint x="100" y="602" as="targetPoint" />
          </mxGeometry>
        </mxCell>
        <mxCell id="p4TbeNJRiNuZwnVtpN4l-6" style="edgeStyle=orthogonalEdgeStyle;rounded=0;orthogonalLoop=1;jettySize=auto;html=1;exitX=0.75;exitY=1;exitDx=0;exitDy=0;endArrow=oval;endFill=0;" edge="1" parent="1" source="p4TbeNJRiNuZwnVtpN4l-1">
          <mxGeometry relative="1" as="geometry">
            <mxPoint x="160" y="612" as="targetPoint" />
          </mxGeometry>
        </mxCell>
        <mxCell id="p4TbeNJRiNuZwnVtpN4l-12" style="edgeStyle=orthogonalEdgeStyle;rounded=0;orthogonalLoop=1;jettySize=auto;html=1;exitX=0;exitY=0.75;exitDx=0;exitDy=0;endArrow=oval;endFill=0;" edge="1" parent="1" source="p4TbeNJRiNuZwnVtpN4l-1">
          <mxGeometry relative="1" as="geometry">
            <mxPoint x="20" y="527" as="targetPoint" />
          </mxGeometry>
        </mxCell>
        <mxCell id="p4TbeNJRiNuZwnVtpN4l-14" style="edgeStyle=orthogonalEdgeStyle;rounded=0;orthogonalLoop=1;jettySize=auto;html=1;exitX=0;exitY=0.25;exitDx=0;exitDy=0;endArrow=oval;endFill=0;" edge="1" parent="1" source="p4TbeNJRiNuZwnVtpN4l-1">
          <mxGeometry relative="1" as="geometry">
            <mxPoint x="20" y="497" as="targetPoint" />
          </mxGeometry>
        </mxCell>
        <mxCell id="p4TbeNJRiNuZwnVtpN4l-1" value="Socio" style="rounded=0;whiteSpace=wrap;html=1;" vertex="1" parent="1">
          <mxGeometry x="70" y="482" width="120" height="60" as="geometry" />
        </mxCell>
        <mxCell id="p4TbeNJRiNuZwnVtpN4l-8" style="edgeStyle=orthogonalEdgeStyle;rounded=0;orthogonalLoop=1;jettySize=auto;html=1;exitX=0.25;exitY=0;exitDx=0;exitDy=0;endArrow=oval;endFill=1;entryX=0.5;entryY=1.093;entryDx=0;entryDy=0;entryPerimeter=0;" edge="1" parent="1" source="p4TbeNJRiNuZwnVtpN4l-2" target="p4TbeNJRiNuZwnVtpN4l-9">
          <mxGeometry relative="1" as="geometry">
            <mxPoint x="100" y="252" as="targetPoint" />
          </mxGeometry>
        </mxCell>
        <mxCell id="p4TbeNJRiNuZwnVtpN4l-10" style="edgeStyle=orthogonalEdgeStyle;rounded=0;orthogonalLoop=1;jettySize=auto;html=1;exitX=0.5;exitY=0;exitDx=0;exitDy=0;endArrow=oval;endFill=0;" edge="1" parent="1" source="p4TbeNJRiNuZwnVtpN4l-2">
          <mxGeometry relative="1" as="geometry">
            <mxPoint x="130" y="202" as="targetPoint" />
          </mxGeometry>
        </mxCell>
        <mxCell id="p4TbeNJRiNuZwnVtpN4l-16" style="edgeStyle=orthogonalEdgeStyle;rounded=0;orthogonalLoop=1;jettySize=auto;html=1;exitX=0.75;exitY=0;exitDx=0;exitDy=0;endArrow=oval;endFill=0;" edge="1" parent="1" source="p4TbeNJRiNuZwnVtpN4l-2">
          <mxGeometry relative="1" as="geometry">
            <mxPoint x="159.9655172413793" y="231.9999999999999" as="targetPoint" />
          </mxGeometry>
        </mxCell>
        <mxCell id="p4TbeNJRiNuZwnVtpN4l-18" style="edgeStyle=orthogonalEdgeStyle;rounded=0;orthogonalLoop=1;jettySize=auto;html=1;exitX=0;exitY=0.25;exitDx=0;exitDy=0;endArrow=oval;endFill=0;" edge="1" parent="1" source="p4TbeNJRiNuZwnVtpN4l-2">
          <mxGeometry relative="1" as="geometry">
            <mxPoint x="20" y="276.8965517241379" as="targetPoint" />
          </mxGeometry>
        </mxCell>
        <mxCell id="p4TbeNJRiNuZwnVtpN4l-20" style="edgeStyle=orthogonalEdgeStyle;rounded=0;orthogonalLoop=1;jettySize=auto;html=1;exitX=0;exitY=0;exitDx=0;exitDy=0;" edge="1" parent="1" source="p4TbeNJRiNuZwnVtpN4l-2">
          <mxGeometry relative="1" as="geometry">
            <mxPoint x="70.31034482758628" y="261.72413793103453" as="targetPoint" />
          </mxGeometry>
        </mxCell>
        <mxCell id="p4TbeNJRiNuZwnVtpN4l-21" style="edgeStyle=orthogonalEdgeStyle;rounded=0;orthogonalLoop=1;jettySize=auto;html=1;exitX=1;exitY=0.25;exitDx=0;exitDy=0;endArrow=oval;endFill=0;" edge="1" parent="1" source="p4TbeNJRiNuZwnVtpN4l-2">
          <mxGeometry relative="1" as="geometry">
            <mxPoint x="240" y="276.8965517241379" as="targetPoint" />
          </mxGeometry>
        </mxCell>
        <mxCell id="p4TbeNJRiNuZwnVtpN4l-23" style="edgeStyle=orthogonalEdgeStyle;rounded=0;orthogonalLoop=1;jettySize=auto;html=1;exitX=1;exitY=0.75;exitDx=0;exitDy=0;endArrow=oval;endFill=0;" edge="1" parent="1" source="p4TbeNJRiNuZwnVtpN4l-2">
          <mxGeometry relative="1" as="geometry">
            <mxPoint x="240" y="307.2413793103449" as="targetPoint" />
          </mxGeometry>
        </mxCell>
        <mxCell id="p4TbeNJRiNuZwnVtpN4l-25" style="edgeStyle=orthogonalEdgeStyle;rounded=0;orthogonalLoop=1;jettySize=auto;html=1;exitX=0;exitY=0.75;exitDx=0;exitDy=0;endArrow=oval;endFill=0;" edge="1" parent="1" source="p4TbeNJRiNuZwnVtpN4l-2">
          <mxGeometry relative="1" as="geometry">
            <mxPoint x="20" y="307.2413793103449" as="targetPoint" />
          </mxGeometry>
        </mxCell>
        <mxCell id="p4TbeNJRiNuZwnVtpN4l-2" value="Barco" style="rounded=0;whiteSpace=wrap;html=1;" vertex="1" parent="1">
          <mxGeometry x="70" y="262" width="120" height="60" as="geometry" />
        </mxCell>
        <mxCell id="p4TbeNJRiNuZwnVtpN4l-27" style="edgeStyle=orthogonalEdgeStyle;rounded=0;orthogonalLoop=1;jettySize=auto;html=1;exitX=1;exitY=0.75;exitDx=0;exitDy=0;endArrow=oval;endFill=1;" edge="1" parent="1" source="p4TbeNJRiNuZwnVtpN4l-3">
          <mxGeometry relative="1" as="geometry">
            <mxPoint x="650" y="418.8965517241379" as="targetPoint" />
          </mxGeometry>
        </mxCell>
        <mxCell id="p4TbeNJRiNuZwnVtpN4l-29" style="edgeStyle=orthogonalEdgeStyle;rounded=0;orthogonalLoop=1;jettySize=auto;html=1;exitX=1;exitY=0.25;exitDx=0;exitDy=0;endArrow=oval;endFill=0;" edge="1" parent="1" source="p4TbeNJRiNuZwnVtpN4l-3">
          <mxGeometry relative="1" as="geometry">
            <mxPoint x="680" y="389.2413793103449" as="targetPoint" />
          </mxGeometry>
        </mxCell>
        <mxCell id="p4TbeNJRiNuZwnVtpN4l-3" value="PatrÃ³n" style="rounded=0;whiteSpace=wrap;html=1;" vertex="1" parent="1">
          <mxGeometry x="500" y="374" width="120" height="60" as="geometry" />
        </mxCell>
        <mxCell id="p4TbeNJRiNuZwnVtpN4l-5" value="DNI" style="text;html=1;align=center;verticalAlign=middle;resizable=0;points=[];autosize=1;strokeColor=none;fillColor=none;" vertex="1" parent="1">
          <mxGeometry x="80" y="610" width="40" height="30" as="geometry" />
        </mxCell>
        <mxCell id="p4TbeNJRiNuZwnVtpN4l-7" value="n_barcos" style="text;html=1;align=center;verticalAlign=middle;resizable=0;points=[];autosize=1;strokeColor=none;fillColor=none;" vertex="1" parent="1">
          <mxGeometry x="125" y="620" width="70" height="30" as="geometry" />
        </mxCell>
        <mxCell id="p4TbeNJRiNuZwnVtpN4l-9" value="matricula" style="text;html=1;align=center;verticalAlign=middle;resizable=0;points=[];autosize=1;strokeColor=none;fillColor=none;" vertex="1" parent="1">
          <mxGeometry x="65" y="192" width="70" height="30" as="geometry" />
        </mxCell>
        <mxCell id="p4TbeNJRiNuZwnVtpN4l-11" value="nombre" style="text;html=1;align=center;verticalAlign=middle;resizable=0;points=[];autosize=1;strokeColor=none;fillColor=none;" vertex="1" parent="1">
          <mxGeometry x="100" y="170" width="60" height="30" as="geometry" />
        </mxCell>
        <mxCell id="p4TbeNJRiNuZwnVtpN4l-13" value="nombre" style="text;html=1;align=center;verticalAlign=middle;resizable=0;points=[];autosize=1;strokeColor=none;fillColor=none;" vertex="1" parent="1">
          <mxGeometry x="-35" y="512" width="60" height="30" as="geometry" />
        </mxCell>
        <mxCell id="p4TbeNJRiNuZwnVtpN4l-15" value="n_socio" style="text;html=1;align=center;verticalAlign=middle;resizable=0;points=[];autosize=1;strokeColor=none;fillColor=none;" vertex="1" parent="1">
          <mxGeometry x="-40" y="482" width="60" height="30" as="geometry" />
        </mxCell>
        <mxCell id="p4TbeNJRiNuZwnVtpN4l-17" value="n_amarre" style="text;html=1;align=center;verticalAlign=middle;resizable=0;points=[];autosize=1;strokeColor=none;fillColor=none;" vertex="1" parent="1">
          <mxGeometry x="135" y="200" width="70" height="30" as="geometry" />
        </mxCell>
        <mxCell id="p4TbeNJRiNuZwnVtpN4l-19" value="cuota" style="text;html=1;align=center;verticalAlign=middle;resizable=0;points=[];autosize=1;strokeColor=none;fillColor=none;" vertex="1" parent="1">
          <mxGeometry x="-35" y="260" width="50" height="30" as="geometry" />
        </mxCell>
        <mxCell id="p4TbeNJRiNuZwnVtpN4l-22" value="fecha_salida" style="text;html=1;align=center;verticalAlign=middle;resizable=0;points=[];autosize=1;strokeColor=none;fillColor=none;" vertex="1" parent="1">
          <mxGeometry x="240" y="260" width="90" height="30" as="geometry" />
        </mxCell>
        <mxCell id="p4TbeNJRiNuZwnVtpN4l-24" value="hora_salida" style="text;html=1;align=center;verticalAlign=middle;resizable=0;points=[];autosize=1;strokeColor=none;fillColor=none;" vertex="1" parent="1">
          <mxGeometry x="240" y="290" width="90" height="30" as="geometry" />
        </mxCell>
        <mxCell id="p4TbeNJRiNuZwnVtpN4l-26" value="destino" style="text;html=1;align=center;verticalAlign=middle;resizable=0;points=[];autosize=1;strokeColor=none;fillColor=none;" vertex="1" parent="1">
          <mxGeometry x="-40" y="292" width="60" height="30" as="geometry" />
        </mxCell>
        <mxCell id="p4TbeNJRiNuZwnVtpN4l-28" value="DNI" style="text;html=1;align=center;verticalAlign=middle;resizable=0;points=[];autosize=1;strokeColor=none;fillColor=none;" vertex="1" parent="1">
          <mxGeometry x="660" y="404" width="40" height="30" as="geometry" />
        </mxCell>
        <mxCell id="p4TbeNJRiNuZwnVtpN4l-30" value="nombre" style="text;html=1;align=center;verticalAlign=middle;resizable=0;points=[];autosize=1;strokeColor=none;fillColor=none;" vertex="1" parent="1">
          <mxGeometry x="680" y="372" width="60" height="30" as="geometry" />
        </mxCell>
        <mxCell id="p4TbeNJRiNuZwnVtpN4l-32" style="edgeStyle=orthogonalEdgeStyle;rounded=0;orthogonalLoop=1;jettySize=auto;html=1;exitX=0.5;exitY=1;exitDx=0;exitDy=0;entryX=0.5;entryY=0;entryDx=0;entryDy=0;endArrow=none;endFill=0;" edge="1" parent="1" source="p4TbeNJRiNuZwnVtpN4l-31" target="p4TbeNJRiNuZwnVtpN4l-1">
          <mxGeometry relative="1" as="geometry" />
        </mxCell>
        <mxCell id="p4TbeNJRiNuZwnVtpN4l-33" style="edgeStyle=orthogonalEdgeStyle;rounded=0;orthogonalLoop=1;jettySize=auto;html=1;exitX=0.5;exitY=0;exitDx=0;exitDy=0;entryX=0.5;entryY=1;entryDx=0;entryDy=0;endArrow=none;endFill=0;" edge="1" parent="1" source="p4TbeNJRiNuZwnVtpN4l-31" target="p4TbeNJRiNuZwnVtpN4l-2">
          <mxGeometry relative="1" as="geometry" />
        </mxCell>
        <mxCell id="p4TbeNJRiNuZwnVtpN4l-31" value="dueÃ±o de" style="rhombus;whiteSpace=wrap;html=1;" vertex="1" parent="1">
          <mxGeometry x="70" y="365" width="120" height="80" as="geometry" />
        </mxCell>
        <mxCell id="p4TbeNJRiNuZwnVtpN4l-34" value="1" style="text;html=1;align=center;verticalAlign=middle;resizable=0;points=[];autosize=1;strokeColor=none;fillColor=none;" vertex="1" parent="1">
          <mxGeometry x="135" y="450" width="30" height="30" as="geometry" />
        </mxCell>
        <mxCell id="p4TbeNJRiNuZwnVtpN4l-35" value="n" style="text;html=1;align=center;verticalAlign=middle;resizable=0;points=[];autosize=1;strokeColor=none;fillColor=none;" vertex="1" parent="1">
          <mxGeometry x="125" y="320" width="30" height="30" as="geometry" />
        </mxCell>
        <mxCell id="p4TbeNJRiNuZwnVtpN4l-36" value="1" style="text;html=1;align=center;verticalAlign=middle;resizable=0;points=[];autosize=1;strokeColor=none;fillColor=none;" vertex="1" parent="1">
          <mxGeometry x="95" y="450" width="30" height="30" as="geometry" />
        </mxCell>
        <mxCell id="p4TbeNJRiNuZwnVtpN4l-37" value="0" style="text;html=1;align=center;verticalAlign=middle;resizable=0;points=[];autosize=1;strokeColor=none;fillColor=none;" vertex="1" parent="1">
          <mxGeometry x="95" y="320" width="30" height="30" as="geometry" />
        </mxCell>
        <mxCell id="p4TbeNJRiNuZwnVtpN4l-38" value="(1,n)" style="text;html=1;align=center;verticalAlign=middle;resizable=0;points=[];autosize=1;strokeColor=none;fillColor=none;" vertex="1" parent="1">
          <mxGeometry x="15" y="390" width="50" height="30" as="geometry" />
        </mxCell>
        <mxCell id="p4TbeNJRiNuZwnVtpN4l-44" style="edgeStyle=orthogonalEdgeStyle;rounded=0;orthogonalLoop=1;jettySize=auto;html=1;exitX=0.5;exitY=0;exitDx=0;exitDy=0;entryX=1.025;entryY=0.642;entryDx=0;entryDy=0;entryPerimeter=0;endArrow=none;endFill=0;" edge="1" parent="1" source="p4TbeNJRiNuZwnVtpN4l-39" target="p4TbeNJRiNuZwnVtpN4l-1">
          <mxGeometry relative="1" as="geometry">
            <mxPoint x="250" y="520" as="targetPoint" />
            <Array as="points">
              <mxPoint x="243" y="520" />
            </Array>
          </mxGeometry>
        </mxCell>
        <mxCell id="p4TbeNJRiNuZwnVtpN4l-45" style="edgeStyle=orthogonalEdgeStyle;rounded=0;orthogonalLoop=1;jettySize=auto;html=1;exitX=0.5;exitY=1;exitDx=0;exitDy=0;entryX=0.25;entryY=1;entryDx=0;entryDy=0;endArrow=none;endFill=0;" edge="1" parent="1" source="p4TbeNJRiNuZwnVtpN4l-39" target="p4TbeNJRiNuZwnVtpN4l-3">
          <mxGeometry relative="1" as="geometry" />
        </mxCell>
        <mxCell id="p4TbeNJRiNuZwnVtpN4l-39" value="o" style="triangle;whiteSpace=wrap;html=1;rotation=-90;" vertex="1" parent="1">
          <mxGeometry x="380" y="480" width="60" height="80" as="geometry" />
        </mxCell>
        <mxCell id="p4TbeNJRiNuZwnVtpN4l-42" style="edgeStyle=orthogonalEdgeStyle;rounded=0;orthogonalLoop=1;jettySize=auto;html=1;exitX=0.5;exitY=0;exitDx=0;exitDy=0;entryX=0;entryY=0.5;entryDx=0;entryDy=0;endArrow=none;endFill=0;" edge="1" parent="1" source="p4TbeNJRiNuZwnVtpN4l-41" target="p4TbeNJRiNuZwnVtpN4l-39">
          <mxGeometry relative="1" as="geometry" />
        </mxCell>
        <mxCell id="p4TbeNJRiNuZwnVtpN4l-46" style="edgeStyle=orthogonalEdgeStyle;rounded=0;orthogonalLoop=1;jettySize=auto;html=1;exitX=1;exitY=0.75;exitDx=0;exitDy=0;endArrow=oval;endFill=1;" edge="1" parent="1" source="p4TbeNJRiNuZwnVtpN4l-41">
          <mxGeometry relative="1" as="geometry">
            <mxPoint x="540" y="632.6666666666667" as="targetPoint" />
          </mxGeometry>
        </mxCell>
        <mxCell id="p4TbeNJRiNuZwnVtpN4l-48" style="edgeStyle=orthogonalEdgeStyle;rounded=0;orthogonalLoop=1;jettySize=auto;html=1;exitX=0.5;exitY=1;exitDx=0;exitDy=0;endArrow=oval;endFill=0;" edge="1" parent="1" source="p4TbeNJRiNuZwnVtpN4l-41">
          <mxGeometry relative="1" as="geometry">
            <mxPoint x="410.16666666666674" y="710" as="targetPoint" />
          </mxGeometry>
        </mxCell>
        <mxCell id="p4TbeNJRiNuZwnVtpN4l-41" value="persona" style="rounded=0;whiteSpace=wrap;html=1;" vertex="1" parent="1">
          <mxGeometry x="350" y="588" width="120" height="60" as="geometry" />
        </mxCell>
        <mxCell id="p4TbeNJRiNuZwnVtpN4l-47" value="DNI" style="text;html=1;align=center;verticalAlign=middle;resizable=0;points=[];autosize=1;strokeColor=none;fillColor=none;" vertex="1" parent="1">
          <mxGeometry x="540" y="618" width="40" height="30" as="geometry" />
        </mxCell>
        <mxCell id="p4TbeNJRiNuZwnVtpN4l-49" value="nombre" style="text;html=1;align=center;verticalAlign=middle;resizable=0;points=[];autosize=1;strokeColor=none;fillColor=none;" vertex="1" parent="1">
          <mxGeometry x="380" y="708" width="60" height="30" as="geometry" />
        </mxCell>
        <mxCell id="p4TbeNJRiNuZwnVtpN4l-55" style="edgeStyle=orthogonalEdgeStyle;rounded=0;orthogonalLoop=1;jettySize=auto;html=1;exitX=0;exitY=0.5;exitDx=0;exitDy=0;entryX=0.75;entryY=1;entryDx=0;entryDy=0;endArrow=none;endFill=0;" edge="1" parent="1" source="p4TbeNJRiNuZwnVtpN4l-51" target="p4TbeNJRiNuZwnVtpN4l-2">
          <mxGeometry relative="1" as="geometry" />
        </mxCell>
        <mxCell id="p4TbeNJRiNuZwnVtpN4l-51" value="es pilotado" style="rhombus;whiteSpace=wrap;html=1;" vertex="1" parent="1">
          <mxGeometry x="320" y="308" width="120" height="80" as="geometry" />
        </mxCell>
        <mxCell id="p4TbeNJRiNuZwnVtpN4l-52" style="edgeStyle=orthogonalEdgeStyle;rounded=0;orthogonalLoop=1;jettySize=auto;html=1;exitX=1;exitY=0.5;exitDx=0;exitDy=0;entryX=-0.012;entryY=0.415;entryDx=0;entryDy=0;entryPerimeter=0;endArrow=none;endFill=0;" edge="1" parent="1" source="p4TbeNJRiNuZwnVtpN4l-51" target="p4TbeNJRiNuZwnVtpN4l-3">
          <mxGeometry relative="1" as="geometry" />
        </mxCell>
        <mxCell id="p4TbeNJRiNuZwnVtpN4l-56" value="1" style="text;html=1;align=center;verticalAlign=middle;resizable=0;points=[];autosize=1;strokeColor=none;fillColor=none;" vertex="1" parent="1">
          <mxGeometry x="155" y="318" width="30" height="30" as="geometry" />
        </mxCell>
        <mxCell id="p4TbeNJRiNuZwnVtpN4l-57" value="1" style="text;html=1;align=center;verticalAlign=middle;resizable=0;points=[];autosize=1;strokeColor=none;fillColor=none;" vertex="1" parent="1">
          <mxGeometry x="475" y="368" width="30" height="30" as="geometry" />
        </mxCell>
        <mxCell id="p4TbeNJRiNuZwnVtpN4l-58" value="1" style="text;html=1;align=center;verticalAlign=middle;resizable=0;points=[];autosize=1;strokeColor=none;fillColor=none;" vertex="1" parent="1">
          <mxGeometry x="475" y="398" width="30" height="30" as="geometry" />
        </mxCell>
        <mxCell id="p4TbeNJRiNuZwnVtpN4l-59" value="n" style="text;html=1;align=center;verticalAlign=middle;resizable=0;points=[];autosize=1;strokeColor=none;fillColor=none;" vertex="1" parent="1">
          <mxGeometry x="155" y="338" width="30" height="30" as="geometry" />
        </mxCell>
        <mxCell id="p4TbeNJRiNuZwnVtpN4l-60" value="(n,1)" style="text;html=1;align=center;verticalAlign=middle;resizable=0;points=[];autosize=1;strokeColor=none;fillColor=none;" vertex="1" parent="1">
          <mxGeometry x="345" y="278" width="50" height="30" as="geometry" />
        </mxCell>
      </root>
    </mxGraphModel>
  </diagram>
</mxfile>
